<svg xmlns="http://www.w3.org/2000/svg" aria-hidden="true" style="position:absolute;width:0;height:0;overflow:hidden"><defs><symbol id="icon-logo" viewBox="0 0 36 32"><path fill="#ecd979" d="M15.786 11.416H14.66v-1.142h1.126v1.142zM14.66 11.416h-1.126v-1.142h1.126v1.142zM9.03 11.416H7.904v-1.142H9.03v1.142zM7.904 11.416H6.778v-1.142h1.126v1.142z" style="fill:var(--color1, #ecd979)"/><path fill="#ecd979" d="M6.778 11.416H5.652v-1.142h1.126v1.142zM29.298 10.274h-1.126V9.132h1.126v1.142z" style="fill:var(--color1, #ecd979)"/><path fill="#ecd979" d="M28.172 10.274h-1.126V9.132h1.126v1.142zM20.29 10.274h-1.126V9.132h1.126v1.142z" style="fill:var(--color1, #ecd979)"/><path fill="#ecd979" d="M19.164 10.274h-1.126V9.132h1.126v1.142zM16.913 10.274h-1.126V9.132h1.126v1.142zM15.786 10.274H14.66V9.132h1.126v1.142zM7.904 10.274H6.778V9.132h1.126v1.142z" style="fill:var(--color1, #ecd979)"/><path fill="#ecd979" d="M6.778 10.274H5.652V9.132h1.126v1.142zM29.298 9.133h-1.126V7.991h1.126v1.142zM19.164 9.133h-1.126V7.991h1.126v1.142zM16.913 9.133h-1.126V7.991h1.126v1.142z" style="fill:var(--color1, #ecd979)"/><path fill="#ecd979" d="M6.778 9.133H5.652V7.991h1.126v1.142zM34.928 7.991h-1.126V6.849h1.126v1.142zM1.148 7.991H.022V6.849h1.126v1.142zM34.928 6.849h-1.126V5.707h1.126v1.142zM33.802 6.849h-1.126V5.707h1.126v1.142zM23.668 6.849h-1.126V5.707h1.126v1.142z" style="fill:var(--color1, #ecd979)"/><path fill="#ecd979" d="M22.542 6.849h-1.126V5.707h1.126v1.142zM21.416 6.849H20.29V5.707h1.126v1.142zM14.66 6.849h-1.126V5.707h1.126v1.142zM13.534 6.849h-1.126V5.707h1.126v1.142zM12.408 6.849h-1.126V5.707h1.126v1.142zM2.274 6.849H1.148V5.707h1.126v1.142zM1.148 6.849H.022V5.707h1.126v1.142zM34.928 5.708h-1.126V4.566h1.126v1.142zM33.802 5.708h-1.126V4.566h1.126v1.142zM32.676 5.708H31.55V4.566h1.126v1.142zM24.794 5.708h-1.126V4.566h1.126v1.142z" style="fill:var(--color1, #ecd979)"/><path fill="#ecd979" d="M23.668 5.708h-1.126V4.566h1.126v1.142z" style="fill:var(--color1, #ecd979)"/><path fill="#ecd979" d="M22.542 5.708h-1.126V4.566h1.126v1.142zM19.164 5.708h-1.126V4.566h1.126v1.142zM16.913 5.708h-1.126V4.566h1.126v1.142zM13.534 5.708h-1.126V4.566h1.126v1.142zM12.408 5.708h-1.126V4.566h1.126v1.142zM11.282 5.708h-1.126V4.566h1.126v1.142zM3.4 5.708H2.274V4.566H3.4v1.142zM2.274 5.708H1.148V4.566h1.126v1.142zM1.148 5.708H.022V4.566h1.126v1.142zM33.802 4.566h-1.126V3.424h1.126v1.142zM32.676 4.566H31.55V3.424h1.126v1.142zM31.55 4.566h-1.126V3.424h1.126v1.142zM25.92 4.566h-1.126V3.424h1.126v1.142zM24.794 4.566h-1.126V3.424h1.126v1.142zM23.668 4.566h-1.126V3.424h1.126v1.142zM20.29 4.566h-1.126V3.424h1.126v1.142z" style="fill:var(--color1, #ecd979)"/><path fill="#ecd979" d="M19.164 4.566h-1.126V3.424h1.126v1.142zM16.913 4.566h-1.126V3.424h1.126v1.142zM15.786 4.566H14.66V3.424h1.126v1.142zM12.408 4.566h-1.126V3.424h1.126v1.142zM11.282 4.566h-1.126V3.424h1.126v1.142zM10.156 4.566H9.03V3.424h1.126v1.142zM4.526 4.566H3.4V3.424h1.126v1.142zM3.4 4.566H2.274V3.424H3.4v1.142zM2.274 4.566H1.148V3.424h1.126v1.142zM32.676 3.425H31.55V2.283h1.126v1.142zM31.55 3.425h-1.126V2.283h1.126v1.142zM30.424 3.425h-1.126V2.283h1.126v1.142zM21.416 3.425H20.29V2.283h1.126v1.142z" style="fill:var(--color1, #ecd979)"/><path fill="#ecd979" d="M20.29 3.425h-1.126V2.283h1.126v1.142z" style="fill:var(--color1, #ecd979)"/><path fill="#ecd979" d="M19.164 3.425h-1.126V2.283h1.126v1.142zM16.913 3.425h-1.126V2.283h1.126v1.142zM15.786 3.425H14.66V2.283h1.126v1.142zM14.66 3.425h-1.126V2.283h1.126v1.142zM5.652 3.425H4.526V2.283h1.126v1.142zM4.526 3.425H3.4V2.283h1.126v1.142zM3.4 3.425H2.274V2.283H3.4v1.142zM36.054 2.283h-1.126V1.141h1.126v1.142zM31.55 2.283h-1.126V1.141h1.126v1.142zM30.424 2.283h-1.126V1.141h1.126v1.142zM29.298 2.283h-1.126V1.141h1.126v1.142zM21.416 2.283H20.29V1.141h1.126v1.142zM20.29 2.283h-1.126V1.141h1.126v1.142zM15.786 2.283H14.66V1.141h1.126v1.142zM14.66 2.283h-1.126V1.141h1.126v1.142zM6.778 2.283H5.652V1.141h1.126v1.142zM5.652 2.283H4.526V1.141h1.126v1.142zM4.526 2.283H3.4V1.141h1.126v1.142z" style="fill:var(--color1, #ecd979)"/><path fill="#ecd979" d="M36.054 1.142h-1.126V0h1.126v1.142zM34.928 1.142h-1.126V0h1.126v1.142zM30.424 1.142h-1.126V0h1.126v1.142zM29.298 1.142h-1.126V0h1.126v1.142z" style="fill:var(--color1, #ecd979)"/><path fill="#ecd979" d="M28.172 1.142h-1.126V0h1.126v1.142zM21.416 1.142H20.29V0h1.126v1.142zM14.66 1.142h-1.126V0h1.126v1.142zM7.904 1.142H6.778V0h1.126v1.142z" style="fill:var(--color1, #ecd979)"/><path fill="#ecd979" d="M6.778 1.142H5.652V0h1.126v1.142zM5.652 1.142H4.526V0h1.126v1.142zM1.148 1.142H.022V0h1.126v1.142z" style="fill:var(--color1, #ecd979)"/></symbol><symbol id="icon-arrow" viewBox="0 0 32 32"><path fill="#ecd979" d="M27.766 17.957a42.712 42.712 0 0 1-.337-3.49c-.022-1.04.017-1.94.119-2.7L2.255 26.37l-1.197-2.073L26.351 9.694a22.284 22.284 0 0 1-2.426-1.297A48.166 48.166 0 0 1 21.1 6.409l1.519-.877c3.209 1.349 6.143 2.024 8.804 2.023l.513.888c-1.35 2.271-2.233 5.149-2.65 8.636l-1.519.877z" style="fill:var(--color1, #ecd979)"/></symbol><symbol id="icon-burger" viewBox="0 0 32 32"><path fill="none" stroke="#ecd979" stroke-linecap="round" stroke-width="2.182" d="M5.961 8.628H30.91M5.961 21.851H30.91M13.613 15.24h17.296" style="stroke:var(--color1, #ecd979)"/></symbol><symbol id="icon-exit" viewBox="0 0 32 32"><path stroke-linecap="round" stroke-linejoin="round" stroke-width="2.182" d="M24 8 8 24M8 8l16 16"/></symbol><symbol id="icon-facebook" viewBox="0 0 32 32"><path fill="#fcf9f9" d="M19.52 4.64h.96v3.6h-1.2c-.48 0-.96 0-1.2.24s-.24.48-.24 1.04v1.28h2.64v3.04h-2.64v13.2h-4.08V13.76H11.6v-3.04h2.16V9.68c0-1.76.24-3.04.72-3.6.72-1.04 2.16-1.52 4.32-1.52.24.08.48.08.72.08z" style="fill:var(--color2, #fcf9f9)"/></symbol><symbol id="icon-instagram" viewBox="0 0 32 32"><path fill="#fcf9f9" d="M28.717 10.756a9.264 9.264 0 0 0-.596-3.145 6.547 6.547 0 0 0-3.743-3.737 9.42 9.42 0 0 0-3.108-.596c-1.368-.061-1.801-.078-5.273-.078s-3.917 0-5.274.078a9.418 9.418 0 0 0-3.106.596 6.541 6.541 0 0 0-3.743 3.737 9.288 9.288 0 0 0-.596 3.101c-.061 1.367-.08 1.8-.08 5.265s0 3.909.08 5.265a9.335 9.335 0 0 0 .596 3.104 6.548 6.548 0 0 0 3.744 3.735 9.37 9.37 0 0 0 3.106.639c1.369.061 1.803.08 5.274.08s3.916 0 5.274-.08a9.357 9.357 0 0 0 3.108-.595 6.555 6.555 0 0 0 3.743-3.737 9.35 9.35 0 0 0 .596-3.104c.061-1.365.08-1.798.08-5.265-.003-3.466-.003-3.906-.082-5.264zM15.99 22.531c-3.631 0-6.572-2.936-6.572-6.561s2.941-6.561 6.572-6.561c3.628 0 6.572 2.936 6.572 6.561s-2.944 6.561-6.572 6.561zm6.833-11.835a1.53 1.53 0 1 1 0-3.06 1.53 1.53 0 1 1 0 3.06z" opacity=".8" style="fill:var(--color2, #fcf9f9)"/><path fill="#fcf9f9" d="M15.992 19.976a4.004 4.004 0 1 0 0-8.009 4.004 4.004 0 0 0 0 8.009z" opacity=".8" style="fill:var(--color2, #fcf9f9)"/></symbol><symbol id="icon-youtube" viewBox="0 0 32 32"><path fill="#fcf9f9" d="M24.24 6c-1.36-.08-4.16-.16-8.4-.16h-.56c-4.08 0-6.8.08-8.16.24-1.84.16-3.12.64-3.84 1.28-.64.56-1.12 1.6-1.28 2.96-.08.88-.16 2.72-.16 5.52v.4c0 2.64.08 4.48.24 5.36.24 1.28.64 2.24 1.44 2.8.8.64 2.16 1.04 4.08 1.2 1.36.08 4.16.16 8.4.16h.56c4.08 0 6.8-.08 8.16-.24 1.84-.16 3.12-.64 3.84-1.28.64-.56 1.12-1.6 1.28-2.96.08-.88.16-2.72.16-5.52v-.4c0-2.64-.08-4.48-.24-5.36-.24-1.28-.64-2.24-1.44-2.8-.8-.64-2.16-1.04-4.08-1.2zm-3.12 9.84-8.8 5.28V10.56l8.8 5.28z" opacity=".8" style="fill:var(--color2, #fcf9f9)"/></symbol></defs></svg>