<svg width="44" height="39" viewBox="0 0 44 39" fill="none" xmlns="http://www.w3.org/2000/svg">
<g clip-path="url(#clip0_40_24)">
<path d="M43.9412 38.9565H42.5688V37.5652H43.9412V38.9565Z" fill="#ECD979"/>
<path d="M42.5686 38.9565H41.1963V37.5652H42.5686V38.9565Z" fill="#ECD979"/>
<path d="M37.0794 38.9565H35.707V37.5652H37.0794V38.9565Z" fill="#ECD979"/>
<path d="M35.7073 38.9565H34.335V37.5652H35.7073V38.9565Z" fill="#ECD979"/>
<path d="M34.3347 38.9565H32.9624V37.5652H34.3347V38.9565Z" fill="#ECD979"/>
<path d="M26.1008 38.9565H24.7285V37.5652H26.1008V38.9565Z" fill="#ECD979"/>
<path d="M17.8674 38.9565H16.4951V37.5652H17.8674V38.9565Z" fill="#ECD979"/>
<path d="M9.63355 38.9565H8.26123V37.5652H9.63355V38.9565Z" fill="#ECD979"/>
<path d="M8.26099 38.9565H6.88867V37.5652H8.26099V38.9565Z" fill="#ECD979"/>
<path d="M6.88892 38.9565H5.5166V37.5652H6.88892V38.9565Z" fill="#ECD979"/>
<path d="M1.39966 38.9565H0.0273438V37.5652H1.39966V38.9565Z" fill="#ECD979"/>
<path d="M43.9412 37.5652H42.5688V36.1739H43.9412V37.5652Z" fill="#ECD979"/>
<path d="M38.4519 37.5652H37.0796V36.1739H38.4519V37.5652Z" fill="#ECD979"/>
<path d="M37.0794 37.5652H35.707V36.1739H37.0794V37.5652Z" fill="#ECD979"/>
<path d="M35.7073 37.5652H34.335V36.1739H35.7073V37.5652Z" fill="#ECD979"/>
<path d="M26.1008 37.5652H24.7285V36.1739H26.1008V37.5652Z" fill="#ECD979"/>
<path d="M24.7283 37.5652H23.356V36.1739H24.7283V37.5652Z" fill="#ECD979"/>
<path d="M19.2395 37.5652H17.8672V36.1739H19.2395V37.5652Z" fill="#ECD979"/>
<path d="M17.8674 37.5652H16.4951V36.1739H17.8674V37.5652Z" fill="#ECD979"/>
<path d="M8.26099 37.5652H6.88867V36.1739H8.26099V37.5652Z" fill="#ECD979"/>
<path d="M6.88892 37.5652H5.5166V36.1739H6.88892V37.5652Z" fill="#ECD979"/>
<path d="M5.51636 37.5652H4.14404V36.1739H5.51636V37.5652Z" fill="#ECD979"/>
<path d="M39.824 36.1739H38.4517V34.7826H39.824V36.1739Z" fill="#ECD979"/>
<path d="M38.4519 36.1739H37.0796V34.7826H38.4519V36.1739Z" fill="#ECD979"/>
<path d="M37.0794 36.1739H35.707V34.7826H37.0794V36.1739Z" fill="#ECD979"/>
<path d="M26.1008 36.1739H24.7285V34.7826H26.1008V36.1739Z" fill="#ECD979"/>
<path d="M24.7283 36.1739H23.356V34.7826H24.7283V36.1739Z" fill="#ECD979"/>
<path d="M23.3562 36.1739H21.9839V34.7826H23.3562V36.1739Z" fill="#ECD979"/>
<path d="M20.6121 36.1739H19.2397V34.7826H20.6121V36.1739Z" fill="#ECD979"/>
<path d="M19.2395 36.1739H17.8672V34.7826H19.2395V36.1739Z" fill="#ECD979"/>
<path d="M17.8674 36.1739H16.4951V34.7826H17.8674V36.1739Z" fill="#ECD979"/>
<path d="M6.88892 36.1739H5.5166V34.7826H6.88892V36.1739Z" fill="#ECD979"/>
<path d="M5.51636 36.1739H4.14404V34.7826H5.51636V36.1739Z" fill="#ECD979"/>
<path d="M4.14429 36.1739H2.77197V34.7826H4.14429V36.1739Z" fill="#ECD979"/>
<path d="M41.1965 34.7826H39.8242V33.3913H41.1965V34.7826Z" fill="#ECD979"/>
<path d="M39.824 34.7826H38.4517V33.3913H39.824V34.7826Z" fill="#ECD979"/>
<path d="M38.4519 34.7826H37.0796V33.3913H38.4519V34.7826Z" fill="#ECD979"/>
<path d="M31.5901 34.7826H30.2178V33.3913H31.5901V34.7826Z" fill="#ECD979"/>
<path d="M30.218 34.7826H28.8457V33.3913H30.218V34.7826Z" fill="#ECD979"/>
<path d="M28.8455 34.7826H27.4731V33.3913H28.8455V34.7826Z" fill="#ECD979"/>
<path d="M24.7283 34.7826H23.356V33.3913H24.7283V34.7826Z" fill="#ECD979"/>
<path d="M23.3562 34.7826H21.9839V33.3913H23.3562V34.7826Z" fill="#ECD979"/>
<path d="M20.6121 34.7826H19.2397V33.3913H20.6121V34.7826Z" fill="#ECD979"/>
<path d="M19.2395 34.7826H17.8672V33.3913H19.2395V34.7826Z" fill="#ECD979"/>
<path d="M15.1228 34.7826H13.7505V33.3913H15.1228V34.7826Z" fill="#ECD979"/>
<path d="M13.7502 34.7826H12.3779V33.3913H13.7502V34.7826Z" fill="#ECD979"/>
<path d="M12.3782 34.7826H11.0059V33.3913H12.3782V34.7826Z" fill="#ECD979"/>
<path d="M5.51636 34.7826H4.14404V33.3913H5.51636V34.7826Z" fill="#ECD979"/>
<path d="M4.14429 34.7826H2.77197V33.3913H4.14429V34.7826Z" fill="#ECD979"/>
<path d="M2.77173 34.7826H1.39941V33.3913H2.77173V34.7826Z" fill="#ECD979"/>
<path d="M42.5686 33.3913H41.1963V32H42.5686V33.3913Z" fill="#ECD979"/>
<path d="M41.1965 33.3913H39.8242V32H41.1965V33.3913Z" fill="#ECD979"/>
<path d="M39.824 33.3913H38.4517V32H39.824V33.3913Z" fill="#ECD979"/>
<path d="M30.218 33.3913H28.8457V32H30.218V33.3913Z" fill="#ECD979"/>
<path d="M28.8455 33.3913H27.4731V32H28.8455V33.3913Z" fill="#ECD979"/>
<path d="M27.4734 33.3913H26.1011V32H27.4734V33.3913Z" fill="#ECD979"/>
<path d="M23.3562 33.3913H21.9839V32H23.3562V33.3913Z" fill="#ECD979"/>
<path d="M20.6121 33.3913H19.2397V32H20.6121V33.3913Z" fill="#ECD979"/>
<path d="M16.4949 33.3913H15.1226V32H16.4949V33.3913Z" fill="#ECD979"/>
<path d="M15.1228 33.3913H13.7505V32H15.1228V33.3913Z" fill="#ECD979"/>
<path d="M13.7502 33.3913H12.3779V32H13.7502V33.3913Z" fill="#ECD979"/>
<path d="M4.14429 33.3913H2.77197V32H4.14429V33.3913Z" fill="#ECD979"/>
<path d="M2.77173 33.3913H1.39941V32H2.77173V33.3913Z" fill="#ECD979"/>
<path d="M1.39966 33.3913H0.0273438V32H1.39966V33.3913Z" fill="#ECD979"/>
<path d="M42.5686 32H41.1963V30.6087H42.5686V32Z" fill="#ECD979"/>
<path d="M41.1965 32H39.8242V30.6087H41.1965V32Z" fill="#ECD979"/>
<path d="M28.8455 32H27.4731V30.6087H28.8455V32Z" fill="#ECD979"/>
<path d="M27.4734 32H26.1011V30.6087H27.4734V32Z" fill="#ECD979"/>
<path d="M26.1008 32H24.7285V30.6087H26.1008V32Z" fill="#ECD979"/>
<path d="M17.8674 32H16.4951V30.6087H17.8674V32Z" fill="#ECD979"/>
<path d="M16.4949 32H15.1226V30.6087H16.4949V32Z" fill="#ECD979"/>
<path d="M15.1228 32H13.7505V30.6087H15.1228V32Z" fill="#ECD979"/>
<path d="M2.77173 32H1.39941V30.6087H2.77173V32Z" fill="#ECD979"/>
<path d="M1.39966 32H0.0273438V30.6087H1.39966V32Z" fill="#ECD979"/>
<path d="M42.5686 30.6087H41.1963V29.2174H42.5686V30.6087Z" fill="#ECD979"/>
<path d="M35.7073 30.6087H34.335V29.2174H35.7073V30.6087Z" fill="#ECD979"/>
<path d="M23.3562 30.6087H21.9839V29.2174H23.3562V30.6087Z" fill="#ECD979"/>
<path d="M20.6121 30.6087H19.2397V29.2174H20.6121V30.6087Z" fill="#ECD979"/>
<path d="M8.26099 30.6087H6.88867V29.2174H8.26099V30.6087Z" fill="#ECD979"/>
<path d="M1.39966 30.6087H0.0273438V29.2174H1.39966V30.6087Z" fill="#ECD979"/>
<path d="M35.7073 29.2174H34.335V27.8261H35.7073V29.2174Z" fill="#ECD979"/>
<path d="M34.3347 29.2174H32.9624V27.8261H34.3347V29.2174Z" fill="#ECD979"/>
<path d="M24.7283 29.2174H23.356V27.8261H24.7283V29.2174Z" fill="#ECD979"/>
<path d="M23.3562 29.2174H21.9839V27.8261H23.3562V29.2174Z" fill="#ECD979"/>
<path d="M20.6121 29.2174H19.2397V27.8261H20.6121V29.2174Z" fill="#ECD979"/>
<path d="M19.2395 29.2174H17.8672V27.8261H19.2395V29.2174Z" fill="#ECD979"/>
<path d="M9.63355 29.2174H8.26123V27.8261H9.63355V29.2174Z" fill="#ECD979"/>
<path d="M8.26099 29.2174H6.88867V27.8261H8.26099V29.2174Z" fill="#ECD979"/>
<path d="M35.7073 27.8261H34.335V26.4348H35.7073V27.8261Z" fill="#ECD979"/>
<path d="M34.3347 27.8261H32.9624V26.4348H34.3347V27.8261Z" fill="#ECD979"/>
<path d="M32.9627 27.8261H31.5903V26.4348H32.9627V27.8261Z" fill="#ECD979"/>
<path d="M26.1008 27.8261H24.7285V26.4348H26.1008V27.8261Z" fill="#ECD979"/>
<path d="M24.7283 27.8261H23.356V26.4348H24.7283V27.8261Z" fill="#ECD979"/>
<path d="M19.2395 27.8261H17.8672V26.4348H19.2395V27.8261Z" fill="#ECD979"/>
<path d="M17.8674 27.8261H16.4951V26.4348H17.8674V27.8261Z" fill="#ECD979"/>
<path d="M11.0056 27.8261H9.6333V26.4348H11.0056V27.8261Z" fill="#ECD979"/>
<path d="M9.63355 27.8261H8.26123V26.4348H9.63355V27.8261Z" fill="#ECD979"/>
<path d="M8.26099 27.8261H6.88867V26.4348H8.26099V27.8261Z" fill="#ECD979"/>
<path d="M34.3347 26.4348H32.9624V25.0435H34.3347V26.4348Z" fill="#ECD979"/>
<path d="M32.9627 26.4348H31.5903V25.0435H32.9627V26.4348Z" fill="#ECD979"/>
<path d="M27.4734 26.4348H26.1011V25.0435H27.4734V26.4348Z" fill="#ECD979"/>
<path d="M26.1008 26.4348H24.7285V25.0435H26.1008V26.4348Z" fill="#ECD979"/>
<path d="M17.8674 26.4348H16.4951V25.0435H17.8674V26.4348Z" fill="#ECD979"/>
<path d="M16.4949 26.4348H15.1226V25.0435H16.4949V26.4348Z" fill="#ECD979"/>
<path d="M11.0056 26.4348H9.6333V25.0435H11.0056V26.4348Z" fill="#ECD979"/>
<path d="M9.63355 26.4348H8.26123V25.0435H9.63355V26.4348Z" fill="#ECD979"/>
<path d="M39.824 25.0435H38.4517V23.6522H39.824V25.0435Z" fill="#ECD979"/>
<path d="M38.4519 25.0435H37.0796V23.6522H38.4519V25.0435Z" fill="#ECD979"/>
<path d="M37.0794 25.0435H35.707V23.6522H37.0794V25.0435Z" fill="#ECD979"/>
<path d="M32.9627 25.0435H31.5903V23.6522H32.9627V25.0435Z" fill="#ECD979"/>
<path d="M28.8455 25.0435H27.4731V23.6522H28.8455V25.0435Z" fill="#ECD979"/>
<path d="M27.4734 25.0435H26.1011V23.6522H27.4734V25.0435Z" fill="#ECD979"/>
<path d="M16.4949 25.0435H15.1226V23.6522H16.4949V25.0435Z" fill="#ECD979"/>
<path d="M15.1228 25.0435H13.7505V23.6522H15.1228V25.0435Z" fill="#ECD979"/>
<path d="M11.0056 25.0435H9.6333V23.6522H11.0056V25.0435Z" fill="#ECD979"/>
<path d="M6.88892 25.0435H5.5166V23.6522H6.88892V25.0435Z" fill="#ECD979"/>
<path d="M5.51636 25.0435H4.14404V23.6522H5.51636V25.0435Z" fill="#ECD979"/>
<path d="M4.14429 25.0435H2.77197V23.6522H4.14429V25.0435Z" fill="#ECD979"/>
<path d="M43.9412 23.6522H42.5688V22.2609H43.9412V23.6522Z" fill="#ECD979"/>
<path d="M38.4519 23.6522H37.0796V22.2609H38.4519V23.6522Z" fill="#ECD979"/>
<path d="M37.0794 23.6522H35.707V22.2609H37.0794V23.6522Z" fill="#ECD979"/>
<path d="M35.7073 23.6522H34.335V22.2609H35.7073V23.6522Z" fill="#ECD979"/>
<path d="M30.218 23.6522H28.8457V22.2609H30.218V23.6522Z" fill="#ECD979"/>
<path d="M28.8455 23.6522H27.4731V22.2609H28.8455V23.6522Z" fill="#ECD979"/>
<path d="M15.1228 23.6522H13.7505V22.2609H15.1228V23.6522Z" fill="#ECD979"/>
<path d="M13.7502 23.6522H12.3779V22.2609H13.7502V23.6522Z" fill="#ECD979"/>
<path d="M8.26099 23.6522H6.88867V22.2609H8.26099V23.6522Z" fill="#ECD979"/>
<path d="M6.88892 23.6522H5.5166V22.2609H6.88892V23.6522Z" fill="#ECD979"/>
<path d="M5.51636 23.6522H4.14404V22.2609H5.51636V23.6522Z" fill="#ECD979"/>
<path d="M43.9412 22.2609H42.5688V20.8696H43.9412V22.2609Z" fill="#ECD979"/>
<path d="M42.5686 22.2609H41.1963V20.8696H42.5686V22.2609Z" fill="#ECD979"/>
<path d="M37.0794 22.2609H35.707V20.8696H37.0794V22.2609Z" fill="#ECD979"/>
<path d="M35.7073 22.2609H34.335V20.8696H35.7073V22.2609Z" fill="#ECD979"/>
<path d="M34.3347 22.2609H32.9624V20.8696H34.3347V22.2609Z" fill="#ECD979"/>
<path d="M31.5901 22.2609H30.2178V20.8696H31.5901V22.2609Z" fill="#ECD979"/>
<path d="M30.218 22.2609H28.8457V20.8696H30.218V22.2609Z" fill="#ECD979"/>
<path d="M21.9841 22.2609H20.6118V20.8696H21.9841V22.2609Z" fill="#ECD979"/>
<path d="M13.7502 22.2609H12.3779V20.8696H13.7502V22.2609Z" fill="#ECD979"/>
<path d="M12.3782 22.2609H11.0059V20.8696H12.3782V22.2609Z" fill="#ECD979"/>
<path d="M9.63355 22.2609H8.26123V20.8696H9.63355V22.2609Z" fill="#ECD979"/>
<path d="M8.26099 22.2609H6.88867V20.8696H8.26099V22.2609Z" fill="#ECD979"/>
<path d="M6.88892 22.2609H5.5166V20.8696H6.88892V22.2609Z" fill="#ECD979"/>
<path d="M1.37232 20.8696H0V19.4783H1.37232V20.8696Z" fill="#ECD979"/>
<path d="M2.77173 20.8696H1.39941V19.4783H2.77173V20.8696Z" fill="#ECD979"/>
<path d="M1.37232 22.2609H0V20.8696H1.37232V22.2609Z" fill="#ECD979"/>
<path d="M1.37232 19.4783H0V18.087H1.37232V19.4783Z" fill="#ECD979"/>
<path d="M43.9412 20.8696H42.5688V19.4783H43.9412V20.8696Z" fill="#ECD979"/>
<path d="M42.5686 20.8696H41.1963V19.4783H42.5686V20.8696Z" fill="#ECD979"/>
<path d="M41.1965 20.8696H39.8242V19.4783H41.1965V20.8696Z" fill="#ECD979"/>
<path d="M23.3562 20.8696H21.9839V19.4783H23.3562V20.8696Z" fill="#ECD979"/>
<path d="M21.9841 20.8696H20.6118V19.4783H21.9841V20.8696Z" fill="#ECD979"/>
<path d="M20.6121 20.8696H19.2397V19.4783H20.6121V20.8696Z" fill="#ECD979"/>
<path d="M43.9412 19.4783H42.5688V18.087H43.9412V19.4783Z" fill="#ECD979"/>
<path d="M42.5686 19.4783H41.1963V18.087H42.5686V19.4783Z" fill="#ECD979"/>
<path d="M37.0794 19.4783H35.707V18.087H37.0794V19.4783Z" fill="#ECD979"/>
<path d="M35.7073 19.4783H34.335V18.087H35.7073V19.4783Z" fill="#ECD979"/>
<path d="M34.3347 19.4783H32.9624V18.087H34.3347V19.4783Z" fill="#ECD979"/>
<path d="M31.5901 19.4783H30.2178V18.087H31.5901V19.4783Z" fill="#ECD979"/>
<path d="M30.218 19.4783H28.8457V18.087H30.218V19.4783Z" fill="#ECD979"/>
<path d="M21.9841 19.4783H20.6118V18.087H21.9841V19.4783Z" fill="#ECD979"/>
<path d="M13.7502 19.4783H12.3779V18.087H13.7502V19.4783Z" fill="#ECD979"/>
<path d="M12.3782 19.4783H11.0059V18.087H12.3782V19.4783Z" fill="#ECD979"/>
<path d="M9.63355 19.4783H8.26123V18.087H9.63355V19.4783Z" fill="#ECD979"/>
<path d="M8.26099 19.4783H6.88867V18.087H8.26099V19.4783Z" fill="#ECD979"/>
<path d="M6.88892 19.4783H5.5166V18.087H6.88892V19.4783Z" fill="#ECD979"/>
<path d="M43.9412 18.0869H42.5688V16.6956H43.9412V18.0869Z" fill="#ECD979"/>
<path d="M38.4519 18.0869H37.0796V16.6956H38.4519V18.0869Z" fill="#ECD979"/>
<path d="M37.0794 18.0869H35.707V16.6956H37.0794V18.0869Z" fill="#ECD979"/>
<path d="M35.7073 18.0869H34.335V16.6956H35.7073V18.0869Z" fill="#ECD979"/>
<path d="M30.218 18.0869H28.8457V16.6956H30.218V18.0869Z" fill="#ECD979"/>
<path d="M28.8455 18.0869H27.4731V16.6956H28.8455V18.0869Z" fill="#ECD979"/>
<path d="M15.1228 18.0869H13.7505V16.6956H15.1228V18.0869Z" fill="#ECD979"/>
<path d="M13.7502 18.0869H12.3779V16.6956H13.7502V18.0869Z" fill="#ECD979"/>
<path d="M8.26099 18.0869H6.88867V16.6956H8.26099V18.0869Z" fill="#ECD979"/>
<path d="M6.88892 18.0869H5.5166V16.6956H6.88892V18.0869Z" fill="#ECD979"/>
<path d="M5.51636 18.0869H4.14404V16.6956H5.51636V18.0869Z" fill="#ECD979"/>
<path d="M39.824 16.6956H38.4517V15.3043H39.824V16.6956Z" fill="#ECD979"/>
<path d="M38.4519 16.6956H37.0796V15.3043H38.4519V16.6956Z" fill="#ECD979"/>
<path d="M37.0794 16.6956H35.707V15.3043H37.0794V16.6956Z" fill="#ECD979"/>
<path d="M32.9627 16.6956H31.5903V15.3043H32.9627V16.6956Z" fill="#ECD979"/>
<path d="M28.8455 16.6956H27.4731V15.3043H28.8455V16.6956Z" fill="#ECD979"/>
<path d="M27.4734 16.6956H26.1011V15.3043H27.4734V16.6956Z" fill="#ECD979"/>
<path d="M16.4949 16.6956H15.1226V15.3043H16.4949V16.6956Z" fill="#ECD979"/>
<path d="M15.1228 16.6956H13.7505V15.3043H15.1228V16.6956Z" fill="#ECD979"/>
<path d="M11.0056 16.6956H9.6333V15.3043H11.0056V16.6956Z" fill="#ECD979"/>
<path d="M6.88892 16.6956H5.5166V15.3043H6.88892V16.6956Z" fill="#ECD979"/>
<path d="M5.51636 16.6956H4.14404V15.3043H5.51636V16.6956Z" fill="#ECD979"/>
<path d="M4.14429 16.6956H2.77197V15.3043H4.14429V16.6956Z" fill="#ECD979"/>
<path d="M34.3347 15.3044H32.9624V13.913H34.3347V15.3044Z" fill="#ECD979"/>
<path d="M32.9627 15.3044H31.5903V13.913H32.9627V15.3044Z" fill="#ECD979"/>
<path d="M27.4734 15.3044H26.1011V13.913H27.4734V15.3044Z" fill="#ECD979"/>
<path d="M26.1008 15.3044H24.7285V13.913H26.1008V15.3044Z" fill="#ECD979"/>
<path d="M17.8674 15.3044H16.4951V13.913H17.8674V15.3044Z" fill="#ECD979"/>
<path d="M16.4949 15.3044H15.1226V13.913H16.4949V15.3044Z" fill="#ECD979"/>
<path d="M11.0056 15.3044H9.6333V13.913H11.0056V15.3044Z" fill="#ECD979"/>
<path d="M9.63355 15.3044H8.26123V13.913H9.63355V15.3044Z" fill="#ECD979"/>
<path d="M35.7073 13.913H34.335V12.5217H35.7073V13.913Z" fill="#ECD979"/>
<path d="M34.3347 13.913H32.9624V12.5217H34.3347V13.913Z" fill="#ECD979"/>
<path d="M32.9627 13.913H31.5903V12.5217H32.9627V13.913Z" fill="#ECD979"/>
<path d="M26.1008 13.913H24.7285V12.5217H26.1008V13.913Z" fill="#ECD979"/>
<path d="M24.7283 13.913H23.356V12.5217H24.7283V13.913Z" fill="#ECD979"/>
<path d="M19.2395 13.913H17.8672V12.5217H19.2395V13.913Z" fill="#ECD979"/>
<path d="M17.8674 13.913H16.4951V12.5217H17.8674V13.913Z" fill="#ECD979"/>
<path d="M11.0056 13.913H9.6333V12.5217H11.0056V13.913Z" fill="#ECD979"/>
<path d="M9.63355 13.913H8.26123V12.5217H9.63355V13.913Z" fill="#ECD979"/>
<path d="M8.26099 13.913H6.88867V12.5217H8.26099V13.913Z" fill="#ECD979"/>
<path d="M35.7073 12.5217H34.335V11.1304H35.7073V12.5217Z" fill="#ECD979"/>
<path d="M34.3347 12.5217H32.9624V11.1304H34.3347V12.5217Z" fill="#ECD979"/>
<path d="M24.7283 12.5217H23.356V11.1304H24.7283V12.5217Z" fill="#ECD979"/>
<path d="M23.3562 12.5217H21.9839V11.1304H23.3562V12.5217Z" fill="#ECD979"/>
<path d="M20.6121 12.5217H19.2397V11.1304H20.6121V12.5217Z" fill="#ECD979"/>
<path d="M19.2395 12.5217H17.8672V11.1304H19.2395V12.5217Z" fill="#ECD979"/>
<path d="M9.63355 12.5217H8.26123V11.1304H9.63355V12.5217Z" fill="#ECD979"/>
<path d="M8.26099 12.5217H6.88867V11.1304H8.26099V12.5217Z" fill="#ECD979"/>
<path d="M35.7073 11.1304H34.335V9.73913H35.7073V11.1304Z" fill="#ECD979"/>
<path d="M23.3562 11.1304H21.9839V9.73913H23.3562V11.1304Z" fill="#ECD979"/>
<path d="M20.6121 11.1304H19.2397V9.73913H20.6121V11.1304Z" fill="#ECD979"/>
<path d="M8.26099 11.1304H6.88867V9.73913H8.26099V11.1304Z" fill="#ECD979"/>
<path d="M42.5686 9.73911H41.1963V8.3478H42.5686V9.73911Z" fill="#ECD979"/>
<path d="M1.39966 9.73911H0.0273438V8.3478H1.39966V9.73911Z" fill="#ECD979"/>
<path d="M42.5686 8.34781H41.1963V6.9565H42.5686V8.34781Z" fill="#ECD979"/>
<path d="M41.1965 8.34781H39.8242V6.9565H41.1965V8.34781Z" fill="#ECD979"/>
<path d="M28.8455 8.34781H27.4731V6.9565H28.8455V8.34781Z" fill="#ECD979"/>
<path d="M27.4734 8.34781H26.1011V6.9565H27.4734V8.34781Z" fill="#ECD979"/>
<path d="M26.1008 8.34781H24.7285V6.9565H26.1008V8.34781Z" fill="#ECD979"/>
<path d="M17.8674 8.34781H16.4951V6.9565H17.8674V8.34781Z" fill="#ECD979"/>
<path d="M16.4949 8.34781H15.1226V6.9565H16.4949V8.34781Z" fill="#ECD979"/>
<path d="M15.1228 8.34781H13.7505V6.9565H15.1228V8.34781Z" fill="#ECD979"/>
<path d="M2.77173 8.34781H1.39941V6.9565H2.77173V8.34781Z" fill="#ECD979"/>
<path d="M1.39966 8.34781H0.0273438V6.9565H1.39966V8.34781Z" fill="#ECD979"/>
<path d="M42.5686 6.95651H41.1963V5.56521H42.5686V6.95651Z" fill="#ECD979"/>
<path d="M41.1965 6.95651H39.8242V5.56521H41.1965V6.95651Z" fill="#ECD979"/>
<path d="M39.824 6.95651H38.4517V5.56521H39.824V6.95651Z" fill="#ECD979"/>
<path d="M30.218 6.95651H28.8457V5.56521H30.218V6.95651Z" fill="#ECD979"/>
<path d="M28.8455 6.95651H27.4731V5.56521H28.8455V6.95651Z" fill="#ECD979"/>
<path d="M27.4734 6.95651H26.1011V5.56521H27.4734V6.95651Z" fill="#ECD979"/>
<path d="M23.3562 6.95651H21.9839V5.56521H23.3562V6.95651Z" fill="#ECD979"/>
<path d="M20.6121 6.95651H19.2397V5.56521H20.6121V6.95651Z" fill="#ECD979"/>
<path d="M16.4949 6.95651H15.1226V5.56521H16.4949V6.95651Z" fill="#ECD979"/>
<path d="M15.1228 6.95651H13.7505V5.56521H15.1228V6.95651Z" fill="#ECD979"/>
<path d="M13.7502 6.95651H12.3779V5.56521H13.7502V6.95651Z" fill="#ECD979"/>
<path d="M4.14429 6.95651H2.77197V5.56521H4.14429V6.95651Z" fill="#ECD979"/>
<path d="M2.77173 6.95651H1.39941V5.56521H2.77173V6.95651Z" fill="#ECD979"/>
<path d="M1.39966 6.95651H0.0273438V5.56521H1.39966V6.95651Z" fill="#ECD979"/>
<path d="M41.1965 5.56522H39.8242V4.17391H41.1965V5.56522Z" fill="#ECD979"/>
<path d="M39.824 5.56522H38.4517V4.17391H39.824V5.56522Z" fill="#ECD979"/>
<path d="M38.4519 5.56522H37.0796V4.17391H38.4519V5.56522Z" fill="#ECD979"/>
<path d="M31.5901 5.56522H30.2178V4.17391H31.5901V5.56522Z" fill="#ECD979"/>
<path d="M30.218 5.56522H28.8457V4.17391H30.218V5.56522Z" fill="#ECD979"/>
<path d="M28.8455 5.56522H27.4731V4.17391H28.8455V5.56522Z" fill="#ECD979"/>
<path d="M24.7283 5.56522H23.356V4.17391H24.7283V5.56522Z" fill="#ECD979"/>
<path d="M23.3562 5.56522H21.9839V4.17391H23.3562V5.56522Z" fill="#ECD979"/>
<path d="M20.6121 5.56522H19.2397V4.17391H20.6121V5.56522Z" fill="#ECD979"/>
<path d="M19.2395 5.56522H17.8672V4.17391H19.2395V5.56522Z" fill="#ECD979"/>
<path d="M15.1228 5.56522H13.7505V4.17391H15.1228V5.56522Z" fill="#ECD979"/>
<path d="M13.7502 5.56522H12.3779V4.17391H13.7502V5.56522Z" fill="#ECD979"/>
<path d="M12.3782 5.56522H11.0059V4.17391H12.3782V5.56522Z" fill="#ECD979"/>
<path d="M5.51636 5.56522H4.14404V4.17391H5.51636V5.56522Z" fill="#ECD979"/>
<path d="M4.14429 5.56522H2.77197V4.17391H4.14429V5.56522Z" fill="#ECD979"/>
<path d="M2.77173 5.56522H1.39941V4.17391H2.77173V5.56522Z" fill="#ECD979"/>
<path d="M39.824 4.17389H38.4517V2.78259H39.824V4.17389Z" fill="#ECD979"/>
<path d="M38.4519 4.17389H37.0796V2.78259H38.4519V4.17389Z" fill="#ECD979"/>
<path d="M37.0794 4.17389H35.707V2.78259H37.0794V4.17389Z" fill="#ECD979"/>
<path d="M26.1008 4.17389H24.7285V2.78259H26.1008V4.17389Z" fill="#ECD979"/>
<path d="M24.7283 4.17389H23.356V2.78259H24.7283V4.17389Z" fill="#ECD979"/>
<path d="M23.3562 4.17389H21.9839V2.78259H23.3562V4.17389Z" fill="#ECD979"/>
<path d="M20.6121 4.17389H19.2397V2.78259H20.6121V4.17389Z" fill="#ECD979"/>
<path d="M19.2395 4.17389H17.8672V2.78259H19.2395V4.17389Z" fill="#ECD979"/>
<path d="M17.8674 4.17389H16.4951V2.78259H17.8674V4.17389Z" fill="#ECD979"/>
<path d="M6.88892 4.17389H5.5166V2.78259H6.88892V4.17389Z" fill="#ECD979"/>
<path d="M5.51636 4.17389H4.14404V2.78259H5.51636V4.17389Z" fill="#ECD979"/>
<path d="M4.14429 4.17389H2.77197V2.78259H4.14429V4.17389Z" fill="#ECD979"/>
<path d="M43.9412 2.78259H42.5688V1.39129H43.9412V2.78259Z" fill="#ECD979"/>
<path d="M38.4519 2.78259H37.0796V1.39129H38.4519V2.78259Z" fill="#ECD979"/>
<path d="M37.0794 2.78259H35.707V1.39129H37.0794V2.78259Z" fill="#ECD979"/>
<path d="M35.7073 2.78259H34.335V1.39129H35.7073V2.78259Z" fill="#ECD979"/>
<path d="M26.1008 2.78259H24.7285V1.39129H26.1008V2.78259Z" fill="#ECD979"/>
<path d="M24.7283 2.78259H23.356V1.39129H24.7283V2.78259Z" fill="#ECD979"/>
<path d="M19.2395 2.78259H17.8672V1.39129H19.2395V2.78259Z" fill="#ECD979"/>
<path d="M17.8674 2.78259H16.4951V1.39129H17.8674V2.78259Z" fill="#ECD979"/>
<path d="M8.26099 2.78259H6.88867V1.39129H8.26099V2.78259Z" fill="#ECD979"/>
<path d="M6.88892 2.78259H5.5166V1.39129H6.88892V2.78259Z" fill="#ECD979"/>
<path d="M5.51636 2.78259H4.14404V1.39129H5.51636V2.78259Z" fill="#ECD979"/>
<path d="M43.9412 1.3913H42.5688V-7.7486e-06H43.9412V1.3913Z" fill="#ECD979"/>
<path d="M42.5686 1.3913H41.1963V-7.7486e-06H42.5686V1.3913Z" fill="#ECD979"/>
<path d="M37.0794 1.3913H35.707V-7.7486e-06H37.0794V1.3913Z" fill="#ECD979"/>
<path d="M35.7073 1.3913H34.335V-7.7486e-06H35.7073V1.3913Z" fill="#ECD979"/>
<path d="M34.3347 1.3913H32.9624V-7.7486e-06H34.3347V1.3913Z" fill="#ECD979"/>
<path d="M26.1008 1.3913H24.7285V-7.7486e-06H26.1008V1.3913Z" fill="#ECD979"/>
<path d="M17.8674 1.3913H16.4951V-7.7486e-06H17.8674V1.3913Z" fill="#ECD979"/>
<path d="M9.63355 1.3913H8.26123V-7.7486e-06H9.63355V1.3913Z" fill="#ECD979"/>
<path d="M8.26099 1.3913H6.88867V-7.7486e-06H8.26099V1.3913Z" fill="#ECD979"/>
<path d="M6.88892 1.3913H5.5166V-7.7486e-06H6.88892V1.3913Z" fill="#ECD979"/>
<path d="M1.39966 1.3913H0.0273438V-7.7486e-06H1.39966V1.3913Z" fill="#ECD979"/>
</g>
<defs>
<clipPath id="clip0_40_24">
<rect width="44" height="39" fill="white"/>
</clipPath>
</defs>
</svg>
