<svg xmlns="http://www.w3.org/2000/svg" aria-hidden="true" style="position:absolute;width:0;height:0;overflow:hidden"><defs><symbol id="icon-logo" viewBox="0 0 44 39"><path d="M43.94 38.956H42.57v-1.39h1.372v1.39ZM42.569 38.956h-1.373v-1.39h1.373v1.39ZM37.08 38.956h-1.373v-1.39h1.372v1.39ZM35.707 38.956h-1.372v-1.39h1.372v1.39ZM34.335 38.956h-1.373v-1.39h1.373v1.39ZM26.1 38.956h-1.372v-1.39h1.373v1.39ZM17.867 38.956h-1.372v-1.39h1.372v1.39ZM9.633 38.956H8.261v-1.39h1.372v1.39ZM8.261 38.956H6.889v-1.39H8.26v1.39Z"/><path d="M6.889 38.956H5.516v-1.39H6.89v1.39ZM1.4 38.956H.026v-1.39H1.4v1.39ZM43.94 37.565H42.57v-1.391h1.372v1.391ZM38.452 37.565h-1.373v-1.391h1.373v1.391Z"/><path d="M37.08 37.565h-1.373v-1.391h1.372v1.391ZM35.707 37.565h-1.372v-1.391h1.372v1.391ZM26.1 37.565h-1.372v-1.391h1.373v1.391Z"/><path d="M24.729 37.565h-1.373v-1.391h1.372v1.391ZM19.24 37.565h-1.373v-1.391h1.372v1.391Z"/><path d="M17.867 37.565h-1.372v-1.391h1.372v1.391ZM8.261 37.565H6.889v-1.391H8.26v1.391Z"/><path d="M6.889 37.565H5.516v-1.391H6.89v1.391ZM5.516 37.565H4.144v-1.391h1.372v1.391ZM39.824 36.174h-1.372v-1.391h1.372v1.39ZM38.452 36.174h-1.373v-1.391h1.373v1.39Z"/><path d="M37.08 36.174h-1.373v-1.391h1.372v1.39ZM26.1 36.174h-1.372v-1.391h1.373v1.39Z"/><path d="M24.729 36.174h-1.373v-1.391h1.372v1.39Z"/><path d="M23.356 36.174h-1.372v-1.391h1.372v1.39ZM20.612 36.174H19.24v-1.391h1.372v1.39ZM19.24 36.174h-1.373v-1.391h1.372v1.39Z"/><path d="M17.867 36.174h-1.372v-1.391h1.372v1.39ZM6.889 36.174H5.516v-1.391H6.89v1.39ZM5.516 36.174H4.144v-1.391h1.372v1.39ZM4.144 36.174H2.772v-1.391h1.372v1.39ZM41.196 34.783h-1.372V33.39h1.372v1.392ZM39.824 34.783h-1.372V33.39h1.372v1.392ZM38.452 34.783h-1.373V33.39h1.373v1.392ZM31.59 34.783h-1.372V33.39h1.372v1.392ZM30.218 34.783h-1.372V33.39h1.372v1.392ZM28.846 34.783h-1.373V33.39h1.373v1.392ZM24.729 34.783h-1.373V33.39h1.372v1.392Z"/><path d="M23.356 34.783h-1.372V33.39h1.372v1.392ZM20.612 34.783H19.24V33.39h1.372v1.392ZM19.24 34.783h-1.373V33.39h1.372v1.392ZM15.123 34.783H13.75V33.39h1.373v1.392ZM13.75 34.783h-1.372V33.39h1.372v1.392ZM12.378 34.783h-1.372V33.39h1.372v1.392ZM5.516 34.783H4.144V33.39h1.372v1.392ZM4.144 34.783H2.772V33.39h1.372v1.392Z"/><path d="M2.772 34.783H1.399V33.39h1.373v1.392ZM42.569 33.391h-1.373V32h1.373v1.391ZM41.196 33.391h-1.372V32h1.372v1.391ZM39.824 33.391h-1.372V32h1.372v1.391ZM30.218 33.391h-1.372V32h1.372v1.391ZM28.846 33.391h-1.373V32h1.373v1.391ZM27.473 33.391h-1.372V32h1.372v1.391ZM23.356 33.391h-1.372V32h1.372v1.391ZM20.612 33.391H19.24V32h1.372v1.391ZM16.495 33.391h-1.372V32h1.372v1.391ZM15.123 33.391H13.75V32h1.373v1.391ZM13.75 33.391h-1.372V32h1.372v1.391Z"/><path d="M4.144 33.391H2.772V32h1.372v1.391Z"/><path d="M2.772 33.391H1.399V32h1.373v1.391Z"/><path d="M1.4 33.391H.026V32H1.4v1.391ZM42.569 32h-1.373v-1.391h1.373V32ZM41.196 32h-1.372v-1.391h1.372V32ZM28.846 32h-1.373v-1.391h1.373V32ZM27.473 32h-1.372v-1.391h1.372V32Z"/><path d="M26.1 32h-1.372v-1.391h1.373V32ZM17.867 32h-1.372v-1.391h1.372V32ZM16.495 32h-1.372v-1.391h1.372V32ZM15.123 32H13.75v-1.391h1.373V32ZM2.772 32H1.399v-1.391h1.373V32Z"/><path d="M1.4 32H.026v-1.391H1.4V32ZM42.569 30.609h-1.373v-1.392h1.373v1.392ZM35.707 30.609h-1.372v-1.392h1.372v1.392ZM23.356 30.609h-1.372v-1.392h1.372v1.392ZM20.612 30.609H19.24v-1.392h1.372v1.392ZM8.261 30.609H6.889v-1.392H8.26v1.392ZM1.4 30.609H.026v-1.392H1.4v1.392ZM35.707 29.217h-1.372v-1.39h1.372v1.39ZM34.335 29.217h-1.373v-1.39h1.373v1.39ZM24.729 29.217h-1.373v-1.39h1.372v1.39Z"/><path d="M23.356 29.217h-1.372v-1.39h1.372v1.39ZM20.612 29.217H19.24v-1.39h1.372v1.39ZM19.24 29.217h-1.373v-1.39h1.372v1.39ZM9.633 29.217H8.261v-1.39h1.372v1.39ZM8.261 29.217H6.889v-1.39H8.26v1.39ZM35.707 27.826h-1.372v-1.391h1.372v1.391ZM34.335 27.826h-1.373v-1.391h1.373v1.391ZM32.962 27.826H31.59v-1.391h1.372v1.391ZM26.1 27.826h-1.372v-1.391h1.373v1.391Z"/><path d="M24.729 27.826h-1.373v-1.391h1.372v1.391ZM19.24 27.826h-1.373v-1.391h1.372v1.391Z"/><path d="M17.867 27.826h-1.372v-1.391h1.372v1.391ZM11.006 27.826H9.633v-1.391h1.373v1.391ZM9.633 27.826H8.261v-1.391h1.372v1.391ZM8.261 27.826H6.889v-1.391H8.26v1.391ZM34.335 26.435h-1.373v-1.391h1.373v1.39ZM32.962 26.435H31.59v-1.391h1.372v1.39ZM27.473 26.435h-1.372v-1.391h1.372v1.39Z"/><path d="M26.1 26.435h-1.372v-1.391h1.373v1.39ZM17.867 26.435h-1.372v-1.391h1.372v1.39ZM16.495 26.435h-1.372v-1.391h1.372v1.39ZM11.006 26.435H9.633v-1.391h1.373v1.39ZM9.633 26.435H8.261v-1.391h1.372v1.39ZM39.824 25.044h-1.372v-1.392h1.372v1.392ZM38.452 25.044h-1.373v-1.392h1.373v1.392Z"/><path d="M37.08 25.044h-1.373v-1.392h1.372v1.392ZM32.962 25.044H31.59v-1.392h1.372v1.392ZM28.846 25.044h-1.373v-1.392h1.373v1.392ZM27.473 25.044h-1.372v-1.392h1.372v1.392ZM16.495 25.044h-1.372v-1.392h1.372v1.392ZM15.123 25.044H13.75v-1.392h1.373v1.392ZM11.006 25.044H9.633v-1.392h1.373v1.392ZM6.889 25.044H5.516v-1.392H6.89v1.392ZM5.516 25.044H4.144v-1.392h1.372v1.392ZM4.144 25.044H2.772v-1.392h1.372v1.392ZM43.94 23.652H42.57v-1.391h1.372v1.391ZM38.452 23.652h-1.373v-1.391h1.373v1.391Z"/><path d="M37.08 23.652h-1.373v-1.391h1.372v1.391ZM35.707 23.652h-1.372v-1.391h1.372v1.391ZM30.218 23.652h-1.372v-1.391h1.372v1.391ZM28.846 23.652h-1.373v-1.391h1.373v1.391ZM15.123 23.652H13.75v-1.391h1.373v1.391ZM13.75 23.652h-1.372v-1.391h1.372v1.391ZM8.261 23.652H6.889v-1.391H8.26v1.391Z"/><path d="M6.889 23.652H5.516v-1.391H6.89v1.391ZM5.516 23.652H4.144v-1.391h1.372v1.391ZM43.94 22.26H42.57v-1.39h1.372v1.39ZM42.569 22.26h-1.373v-1.39h1.373v1.39ZM37.08 22.26h-1.373v-1.39h1.372v1.39ZM35.707 22.26h-1.372v-1.39h1.372v1.39ZM34.335 22.26h-1.373v-1.39h1.373v1.39ZM31.59 22.26h-1.372v-1.39h1.372v1.39ZM30.218 22.26h-1.372v-1.39h1.372v1.39ZM21.984 22.26h-1.372v-1.39h1.372v1.39ZM13.75 22.26h-1.372v-1.39h1.372v1.39ZM12.378 22.26h-1.372v-1.39h1.372v1.39ZM9.633 22.26H8.261v-1.39h1.372v1.39ZM8.261 22.26H6.889v-1.39H8.26v1.39Z"/><path d="M6.889 22.26H5.516v-1.39H6.89v1.39ZM1.372 20.87H0v-1.392h1.372v1.392ZM2.772 20.87H1.399v-1.392h1.373v1.392ZM1.372 22.26H0v-1.39h1.372v1.39ZM1.372 19.478H0v-1.391h1.372v1.391ZM43.94 20.87H42.57v-1.392h1.372v1.392ZM42.569 20.87h-1.373v-1.392h1.373v1.392ZM41.196 20.87h-1.372v-1.392h1.372v1.392ZM23.356 20.87h-1.372v-1.392h1.372v1.392ZM21.984 20.87h-1.372v-1.392h1.372v1.392ZM20.612 20.87H19.24v-1.392h1.372v1.392ZM43.94 19.478H42.57v-1.391h1.372v1.391ZM42.569 19.478h-1.373v-1.391h1.373v1.391ZM37.08 19.478h-1.373v-1.391h1.372v1.391ZM35.707 19.478h-1.372v-1.391h1.372v1.391ZM34.335 19.478h-1.373v-1.391h1.373v1.391ZM31.59 19.478h-1.372v-1.391h1.372v1.391ZM30.218 19.478h-1.372v-1.391h1.372v1.391ZM21.984 19.478h-1.372v-1.391h1.372v1.391ZM13.75 19.478h-1.372v-1.391h1.372v1.391ZM12.378 19.478h-1.372v-1.391h1.372v1.391ZM9.633 19.478H8.261v-1.391h1.372v1.391ZM8.261 19.478H6.889v-1.391H8.26v1.391Z"/><path d="M6.889 19.478H5.516v-1.391H6.89v1.391ZM43.94 18.087H42.57v-1.391h1.372v1.39ZM38.452 18.087h-1.373v-1.391h1.373v1.39Z"/><path d="M37.08 18.087h-1.373v-1.391h1.372v1.39ZM35.707 18.087h-1.372v-1.391h1.372v1.39ZM30.218 18.087h-1.372v-1.391h1.372v1.39ZM28.846 18.087h-1.373v-1.391h1.373v1.39ZM15.123 18.087H13.75v-1.391h1.373v1.39ZM13.75 18.087h-1.372v-1.391h1.372v1.39ZM8.261 18.087H6.889v-1.391H8.26v1.39Z"/><path d="M6.889 18.087H5.516v-1.391H6.89v1.39ZM5.516 18.087H4.144v-1.391h1.372v1.39ZM39.824 16.696h-1.372v-1.392h1.372v1.392ZM38.452 16.696h-1.373v-1.392h1.373v1.392Z"/><path d="M37.08 16.696h-1.373v-1.392h1.372v1.392ZM32.962 16.696H31.59v-1.392h1.372v1.392ZM28.846 16.696h-1.373v-1.392h1.373v1.392ZM27.473 16.696h-1.372v-1.392h1.372v1.392ZM16.495 16.696h-1.372v-1.392h1.372v1.392ZM15.123 16.696H13.75v-1.392h1.373v1.392ZM11.006 16.696H9.633v-1.392h1.373v1.392ZM6.889 16.696H5.516v-1.392H6.89v1.392ZM5.516 16.696H4.144v-1.392h1.372v1.392ZM4.144 16.696H2.772v-1.392h1.372v1.392ZM34.335 15.304h-1.373v-1.391h1.373v1.391ZM32.962 15.304H31.59v-1.391h1.372v1.391ZM27.473 15.304h-1.372v-1.391h1.372v1.391Z"/><path d="M26.1 15.304h-1.372v-1.391h1.373v1.391ZM17.867 15.304h-1.372v-1.391h1.372v1.391ZM16.495 15.304h-1.372v-1.391h1.372v1.391ZM11.006 15.304H9.633v-1.391h1.373v1.391ZM9.633 15.304H8.261v-1.391h1.372v1.391ZM35.707 13.913h-1.372v-1.391h1.372v1.391ZM34.335 13.913h-1.373v-1.391h1.373v1.391ZM32.962 13.913H31.59v-1.391h1.372v1.391ZM26.1 13.913h-1.372v-1.391h1.373v1.391Z"/><path d="M24.729 13.913h-1.373v-1.391h1.372v1.391ZM19.24 13.913h-1.373v-1.391h1.372v1.391Z"/><path d="M17.867 13.913h-1.372v-1.391h1.372v1.391ZM11.006 13.913H9.633v-1.391h1.373v1.391ZM9.633 13.913H8.261v-1.391h1.372v1.391ZM8.261 13.913H6.889v-1.391H8.26v1.391ZM35.707 12.522h-1.372V11.13h1.372v1.392ZM34.335 12.522h-1.373V11.13h1.373v1.392ZM24.729 12.522h-1.373V11.13h1.372v1.392Z"/><path d="M23.356 12.522h-1.372V11.13h1.372v1.392ZM20.612 12.522H19.24V11.13h1.372v1.392ZM19.24 12.522h-1.373V11.13h1.372v1.392ZM9.633 12.522H8.261V11.13h1.372v1.392ZM8.261 12.522H6.889V11.13H8.26v1.392ZM35.707 11.13h-1.372V9.74h1.372v1.39ZM23.356 11.13h-1.372V9.74h1.372v1.39ZM20.612 11.13H19.24V9.74h1.372v1.39ZM8.261 11.13H6.889V9.74H8.26v1.39ZM42.569 9.74h-1.373V8.347h1.373v1.391ZM1.4 9.74H.026V8.347H1.4v1.391Z"/><path d="M42.569 8.348h-1.373V6.956h1.373v1.392ZM41.196 8.348h-1.372V6.956h1.372v1.392ZM28.846 8.348h-1.373V6.956h1.373v1.392ZM27.473 8.348h-1.372V6.956h1.372v1.392Z"/><path d="M26.1 8.348h-1.372V6.956h1.373v1.392ZM17.867 8.348h-1.372V6.956h1.372v1.392ZM16.495 8.348h-1.372V6.956h1.372v1.392ZM15.123 8.348H13.75V6.956h1.373v1.392ZM2.772 8.348H1.399V6.956h1.373v1.392Z"/><path d="M1.4 8.348H.026V6.956H1.4v1.392ZM42.569 6.957h-1.373V5.565h1.373v1.392ZM41.196 6.957h-1.372V5.565h1.372v1.392ZM39.824 6.957h-1.372V5.565h1.372v1.392ZM30.218 6.957h-1.372V5.565h1.372v1.392ZM28.846 6.957h-1.373V5.565h1.373v1.392ZM27.473 6.957h-1.372V5.565h1.372v1.392ZM23.356 6.957h-1.372V5.565h1.372v1.392ZM20.612 6.957H19.24V5.565h1.372v1.392ZM16.495 6.957h-1.372V5.565h1.372v1.392ZM15.123 6.957H13.75V5.565h1.373v1.392ZM13.75 6.957h-1.372V5.565h1.372v1.392ZM4.144 6.957H2.772V5.565h1.372v1.392Z"/><path d="M2.772 6.957H1.399V5.565h1.373v1.392Z"/><path d="M1.4 6.957H.026V5.565H1.4v1.392ZM41.196 5.565h-1.372V4.174h1.372v1.391ZM39.824 5.565h-1.372V4.174h1.372v1.391ZM38.452 5.565h-1.373V4.174h1.373v1.391ZM31.59 5.565h-1.372V4.174h1.372v1.391ZM30.218 5.565h-1.372V4.174h1.372v1.391ZM28.846 5.565h-1.373V4.174h1.373v1.391ZM24.729 5.565h-1.373V4.174h1.372v1.391Z"/><path d="M23.356 5.565h-1.372V4.174h1.372v1.391ZM20.612 5.565H19.24V4.174h1.372v1.391ZM19.24 5.565h-1.373V4.174h1.372v1.391ZM15.123 5.565H13.75V4.174h1.373v1.391ZM13.75 5.565h-1.372V4.174h1.372v1.391ZM12.378 5.565h-1.372V4.174h1.372v1.391ZM5.516 5.565H4.144V4.174h1.372v1.391ZM4.144 5.565H2.772V4.174h1.372v1.391Z"/><path d="M2.772 5.565H1.399V4.174h1.373v1.391ZM39.824 4.174h-1.372V2.783h1.372v1.39ZM38.452 4.174h-1.373V2.783h1.373v1.39Z"/><path d="M37.08 4.174h-1.373V2.783h1.372v1.39ZM26.1 4.174h-1.372V2.783h1.373v1.39Z"/><path d="M24.729 4.174h-1.373V2.783h1.372v1.39Z"/><path d="M23.356 4.174h-1.372V2.783h1.372v1.39ZM20.612 4.174H19.24V2.783h1.372v1.39ZM19.24 4.174h-1.373V2.783h1.372v1.39Z"/><path d="M17.867 4.174h-1.372V2.783h1.372v1.39ZM6.889 4.174H5.516V2.783H6.89v1.39ZM5.516 4.174H4.144V2.783h1.372v1.39ZM4.144 4.174H2.772V2.783h1.372v1.39ZM43.94 2.783H42.57V1.39h1.372v1.392ZM38.452 2.783h-1.373V1.39h1.373v1.392Z"/><path d="M37.08 2.783h-1.373V1.39h1.372v1.392ZM35.707 2.783h-1.372V1.39h1.372v1.392ZM26.1 2.783h-1.372V1.39h1.373v1.392Z"/><path d="M24.729 2.783h-1.373V1.39h1.372v1.392ZM19.24 2.783h-1.373V1.39h1.372v1.392Z"/><path d="M17.867 2.783h-1.372V1.39h1.372v1.392ZM8.261 2.783H6.889V1.39H8.26v1.392Z"/><path d="M6.889 2.783H5.516V1.39H6.89v1.392ZM5.516 2.783H4.144V1.39h1.372v1.392ZM43.94 1.391H42.57V0h1.372v1.391ZM42.569 1.391h-1.373V0h1.373v1.391ZM37.08 1.391h-1.373V0h1.372v1.391ZM35.707 1.391h-1.372V0h1.372v1.391ZM34.335 1.391h-1.373V0h1.373v1.391ZM26.1 1.391h-1.372V0h1.373v1.391ZM17.867 1.391h-1.372V0h1.372v1.391ZM9.633 1.391H8.261V0h1.372v1.391Z"/><path d="M8.261 1.391H6.889V0H8.26v1.391Z"/><path d="M6.889 1.391H5.516V0H6.89v1.391ZM1.4 1.391H.026V0H1.4v1.391Z"/></symbol><symbol id="icon-arrow" viewBox="0 0 32 32"><path d="M27.766 17.957a42.712 42.712 0 0 1-.337-3.49c-.022-1.04.017-1.94.119-2.7L2.255 26.37l-1.197-2.073L26.351 9.694a22.284 22.284 0 0 1-2.426-1.297A48.166 48.166 0 0 1 21.1 6.409l1.519-.877c3.209 1.349 6.143 2.024 8.804 2.023l.513.888c-1.35 2.271-2.233 5.149-2.65 8.636l-1.519.877z"/></symbol><symbol id="icon-burger" viewBox="0 0 32 32"><path stroke-linecap="round" stroke-width="2.182" d="M5.961 8.628H30.91M5.961 21.851H30.91M13.613 15.24h17.296"/></symbol><symbol id="icon-exit" viewBox="0 0 32 32"><path stroke-linecap="round" stroke-linejoin="round" stroke-width="2.182" d="M24 8 8 24M8 8l16 16"/></symbol><symbol id="icon-facebook" viewBox="0 0 32 32"><path d="M19.52 4.64h.96v3.6h-1.2c-.48 0-.96 0-1.2.24s-.24.48-.24 1.04v1.28h2.64v3.04h-2.64v13.2h-4.08V13.76H11.6v-3.04h2.16V9.68c0-1.76.24-3.04.72-3.6.72-1.04 2.16-1.52 4.32-1.52.24.08.48.08.72.08z"/></symbol><symbol id="icon-instagram" viewBox="0 0 32 32"><path d="M28.717 10.756a9.264 9.264 0 0 0-.596-3.145 6.547 6.547 0 0 0-3.743-3.737 9.42 9.42 0 0 0-3.108-.596c-1.368-.061-1.801-.078-5.273-.078s-3.917 0-5.274.078a9.418 9.418 0 0 0-3.106.596 6.541 6.541 0 0 0-3.743 3.737 9.288 9.288 0 0 0-.596 3.101c-.061 1.367-.08 1.8-.08 5.265s0 3.909.08 5.265a9.335 9.335 0 0 0 .596 3.104 6.548 6.548 0 0 0 3.744 3.735 9.37 9.37 0 0 0 3.106.639c1.369.061 1.803.08 5.274.08s3.916 0 5.274-.08a9.357 9.357 0 0 0 3.108-.595 6.555 6.555 0 0 0 3.743-3.737 9.35 9.35 0 0 0 .596-3.104c.061-1.365.08-1.798.08-5.265-.003-3.466-.003-3.906-.082-5.264zM15.99 22.531c-3.631 0-6.572-2.936-6.572-6.561s2.941-6.561 6.572-6.561c3.628 0 6.572 2.936 6.572 6.561s-2.944 6.561-6.572 6.561zm6.833-11.835a1.53 1.53 0 1 1 0-3.06 1.53 1.53 0 1 1 0 3.06z" opacity=".8"/><path d="M15.992 19.976a4.004 4.004 0 1 0 0-8.009 4.004 4.004 0 0 0 0 8.009z" opacity=".8"/></symbol><symbol id="icon-youtube" viewBox="0 0 32 32"><path d="M24.24 6c-1.36-.08-4.16-.16-8.4-.16h-.56c-4.08 0-6.8.08-8.16.24-1.84.16-3.12.64-3.84 1.28-.64.56-1.12 1.6-1.28 2.96-.08.88-.16 2.72-.16 5.52v.4c0 2.64.08 4.48.24 5.36.24 1.28.64 2.24 1.44 2.8.8.64 2.16 1.04 4.08 1.2 1.36.08 4.16.16 8.4.16h.56c4.08 0 6.8-.08 8.16-.24 1.84-.16 3.12-.64 3.84-1.28.64-.56 1.12-1.6 1.28-2.96.08-.88.16-2.72.16-5.52v-.4c0-2.64-.08-4.48-.24-5.36-.24-1.28-.64-2.24-1.44-2.8-.8-.64-2.16-1.04-4.08-1.2zm-3.12 9.84-8.8 5.28V10.56l8.8 5.28z" opacity=".8"/></symbol></defs></svg>